<?xml version="1.0" encoding="UTF-8"?>
<svg width="50px" height="44px" viewBox="0 0 50 44" version="1.1" xmlns="http://www.w3.org/2000/svg" xmlns:xlink="http://www.w3.org/1999/xlink">
    <!-- Generator: Sketch 45 (43475) - http://www.bohemiancoding.com/sketch -->
    <title>skype@2x</title>
    <desc>Created with Sketch.</desc>
    <defs>
        <polygon id="path-1" points="24.9228957 43.5136437 49.8457491 43.5136437 49.8457491 0.000372974089 24.9228957 0.000372974089 4.2248288e-05 0.000372974089 4.2248288e-05 43.5136437"></polygon>
    </defs>
    <g id="Symbols" stroke="none" stroke-width="1" fill="none" fill-rule="evenodd">
        <g id="form-alternative" transform="translate(-261.000000, -259.000000)">
            <g id="skype" transform="translate(261.000000, 259.000000)">
                <mask id="mask-2" fill="white">
                    <use xlink:href="#path-1"></use>
                </mask>
                <g id="Clip-2"></g>
                <path d="M25.7194229,17.8565075 C30.1063441,18.899716 36.7355856,20.4761531 36.7355856,27.7783642 C36.7355856,31.3755749 34.964083,34.1196696 31.7471814,35.5050197 C29.4516503,36.4936497 26.8536371,36.6270501 24.6149223,36.6270501 C17.7352909,36.6270501 13.3901428,31.2776071 13.2085044,31.0498442 C12.081874,29.6367697 12.3137395,27.5777041 13.7269384,26.4510737 C15.1397642,25.323946 17.1988298,25.5564332 18.3257089,26.9691347 C18.3357792,26.9811942 20.9342896,29.9654842 24.6149223,30.0822251 C29.0470977,30.2228363 30.0597223,28.9041243 30.1906362,27.7784885 C30.3506421,26.403706 29.1276601,25.3944381 24.2048994,24.2237968 C20.032314,23.2314371 13.7259438,21.7318326 13.7259438,15.0067368 C13.7259438,12.9124873 14.5776923,6.07935332 25.5384061,6.07935332 C32.4593133,6.07935332 36.5444985,11.5283804 36.715072,11.7603703 C37.7855076,13.2165855 37.4729553,15.2649592 36.0167402,16.3352705 C34.5668656,17.4009818 32.5314216,17.0960133 31.4568833,15.6574522 C31.379802,15.5583655 29.0413788,12.9567469 25.5384061,12.6241783 C22.8878036,12.3724208 20.2707687,13.3282291 20.2707687,14.7401846 C20.2707687,16.2361837 21.0223115,16.7394501 25.7194229,17.8565075 Z M47.8354188,25.5579251 C47.0445894,24.4648624 46.6780802,23.1298638 46.6795721,21.7806922 C46.6796964,21.7728597 46.6796964,21.7650273 46.6796964,21.7570705 C46.6796964,9.74121292 36.9388564,0.000372974089 24.9229989,0.000372974089 C22.2944018,0.000372974089 19.7757078,0.468206806 17.4433765,1.32318774 C16.1816052,1.78567561 14.7993632,1.87456777 13.5057647,1.51017208 C12.3630964,1.18829545 11.1424766,1.05253288 9.87797009,1.13956017 C4.56619744,1.50507477 0.289925192,5.85830401 0.0146703144,11.1755469 C-0.11674089,13.7135113 0.644374901,16.0678481 2.01045466,17.9560915 C2.80128405,19.0491543 3.16779326,20.3841529 3.16617704,21.7333245 C3.16617704,21.7411569 3.16617704,21.7489894 3.16617704,21.7569462 C3.16617704,33.7728037 12.9068927,43.5136437 24.9228745,43.5136437 C27.5515959,43.5136437 30.0702899,43.0458098 32.4024969,42.1908289 C33.6642683,41.728341 35.0465102,41.6394489 36.3401087,42.0038446 C37.482777,42.3257212 38.7032725,42.4614838 39.9679033,42.3744565 C45.279676,42.0089419 49.5558239,37.655837 49.8312031,32.3387183 C49.9626143,29.800754 49.2014985,27.4462929 47.8354188,25.5579251 L47.8354188,25.5579251 Z" id="Fill-1" fill="#FFFFFF" mask="url(#mask-2)"></path>
            </g>
        </g>
    </g>
</svg>