<?xml version="1.0" encoding="UTF-8"?>
<svg width="53px" height="45px" viewBox="0 0 53 45" version="1.1" xmlns="http://www.w3.org/2000/svg" xmlns:xlink="http://www.w3.org/1999/xlink">
    <!-- Generator: Sketch 45 (43475) - http://www.bohemiancoding.com/sketch -->
    <title>telegram@2x</title>
    <desc>Created with Sketch.</desc>
    <defs></defs>
    <g id="Symbols" stroke="none" stroke-width="1" fill="none" fill-rule="evenodd">
        <g id="form-alternative" transform="translate(-366.000000, -258.000000)" fill="#FFFFFF">
            <g id="telegram" transform="translate(366.150204, 258.000000)">
                <path d="M49.1390864,0.172780039 L1.11547436,18.8873355 C-0.440263671,19.493636 -0.345713879,21.725799 1.25552624,22.198154 L13.4591466,25.801486 L18.0134919,40.2532246 C18.4889986,41.7628696 20.4018591,42.2200573 21.5090765,41.0895963 L27.8185023,34.6470129 L40.1982217,43.7342328 C41.7131851,44.8461778 43.8706932,44.019655 44.2553926,42.1806615 L52.4546324,2.98051489 C52.856272,1.05997225 50.967246,-0.539692037 49.1390864,0.172780039 Z M43.1182344,8.87214879 L20.8119688,28.598387 C20.5895798,28.7945778 20.4479521,29.0669994 20.4148596,29.3616796 L19.5562294,36.9961813 C19.5276674,37.2455564 19.1792121,37.2786488 19.105345,37.0393196 L15.5711526,25.652964 C15.4096301,25.1321522 15.6203973,24.5672172 16.0844792,24.2796283 L42.4264451,7.94181823 C43.0319577,7.56637677 43.6522438,8.39959681 43.1182344,8.87214879 Z" id="Fill-2"></path>
            </g>
        </g>
    </g>
</svg>