<?xml version="1.0" encoding="UTF-8"?>
<svg width="125px" height="31px" viewBox="0 0 125 31" version="1.1" xmlns="http://www.w3.org/2000/svg" xmlns:xlink="http://www.w3.org/1999/xlink">
    <!-- Generator: Sketch 45 (43475) - http://www.bohemiancoding.com/sketch -->
    <title>viber@2x</title>
    <desc>Created with Sketch.</desc>
    <defs></defs>
    <g id="Symbols" stroke="none" stroke-width="1" fill-rule="evenodd">
        <g id="form-alternative" transform="translate(-573.000000, -265.000000)" fill-rule="nonzero">
            <g id="viber" transform="translate(573.000341, 265.000000)">
                <path d="M23.1298726,30.0937052 C25.3682474,30.0937052 27.9796846,27.9796846 28.7258095,25.865664 C29.4719344,23.8759975 27.9796846,23.0055184 26.7361431,22.0106852 C25.865664,21.2645603 24.8708307,20.6427895 24.0003517,20.0210188 C22.1350394,18.6531231 20.3940812,18.6531231 19.0261855,20.7671437 C18.2800606,22.0106852 17.1608732,22.0106852 16.0416858,21.5132686 C12.932832,20.0210188 10.4457489,17.9069981 8.95349907,14.6737901 C8.3317283,13.3058945 8.3317283,11.9379988 9.82397815,10.9431655 C10.5701031,10.4457489 11.4405821,9.82397815 11.316228,8.58043661 C11.1918738,7.08818676 7.58560338,1.98966646 6.09335353,1.49224984 C5.47158276,1.24354154 4.849812,1.24354154 4.22804123,1.49224984 C0.870479076,2.61143723 -0.621770769,5.47158276 0.746124922,8.70479076 C4.72545784,18.6531231 11.9379988,25.4926015 21.6376228,29.7206427 C22.2593935,29.9693511 22.8811643,29.9693511 23.1298726,30.0937052 Z M15.9173317,0.870479076 C15.4199151,0.99483323 14.3007277,0.497416615 14.3007277,1.616604 C14.3007277,2.36272892 15.1712068,2.23837477 15.7929775,2.36272892 C22.8811643,3.4819163 26.2387264,6.83947846 27.1092055,14.0520194 C27.2335597,14.6737901 26.9848514,15.6686234 27.8553304,15.7929775 C28.8501637,15.7929775 28.6014554,14.7981443 28.6014554,14.1763735 C28.7258095,7.33689507 22.7568101,1.11918738 15.9173317,0.870479076 L15.9173317,0.870479076 Z M67.5243055,15.5442692 L67.5243055,4.97416615 C67.5243055,2.86014554 68.2716739,1.11918738 70.6331593,1.11918738 C72.8715341,1.11918738 73.4933049,2.73579138 73.4933049,4.849812 L73.4933049,6.21770769 C73.4933049,9.45091568 73.4933049,9.45091568 76.4778046,8.58043661 C80.5814916,7.33689507 84.5608245,8.95349907 86.550491,12.6841237 C88.9132199,17.1608732 89.1631718,21.6376228 86.550491,26.1143723 C83.9390538,30.5911218 78.9648876,31.9590175 74.4893816,29.2232261 C73.7420132,28.7258095 73.4933049,28.4771012 72.8715341,29.3475803 C72.001055,30.5911218 70.6331593,30.715476 69.2652636,30.0937052 C67.8961244,29.4719344 67.5243055,28.2283929 67.5243055,26.7361431 L67.5243055,15.5442692 L67.5243055,15.5442692 Z M82.3224498,19.399248 C82.3224498,16.0416858 80.4571375,13.5546028 77.9700544,13.4302486 C75.3586172,13.3058945 73.3689507,15.6686234 73.3689507,19.0261855 C73.3689507,22.2606371 75.234263,24.8708307 77.7213461,24.9951849 C80.3327833,25.2438932 82.3224498,22.7568101 82.3224498,19.399248 Z M45.1405578,19.5236021 C47.1302243,14.3007277 48.7468283,9.9483323 50.3634323,5.47158276 C50.6121406,4.72545784 50.8608489,3.97933292 51.2339113,3.233208 C51.9800363,1.49224984 53.2235778,0.497416615 55.2132443,1.24354154 C57.3272649,1.98966646 57.5759732,3.60627046 56.9542024,5.59593692 C54.964536,10.8188114 52.8505153,16.0416858 50.8608489,21.3889144 C49.9903698,23.6272892 49.1198907,25.865664 48.2494117,27.9796846 C47.751995,29.2232261 46.881516,30.2180594 45.3892661,30.3424135 C43.648308,30.3424135 42.7778289,29.3463367 42.2804123,27.8553304 C39.4202667,20.5184354 36.435767,13.0571861 33.5756215,5.72029107 C32.8294966,3.73062461 33.202559,1.98966646 35.4409338,1.24354154 C37.6793086,0.497416615 38.6741418,1.86531231 39.4202667,3.73062461 C41.1612249,8.70479076 43.0265372,13.6789569 45.1405578,19.5236021 L45.1405578,19.5236021 Z M102.09476,21.2645603 L96.7475316,21.2645603 C95.3796359,21.2645603 95.2552818,21.8863311 95.8770525,22.8811643 C96.9962399,24.9951849 100.229448,25.865664 102.965239,24.8708307 C103.960073,24.4977683 104.830552,24.0003517 105.825385,23.5029351 C107.194524,22.7555666 108.438066,22.8811643 109.308545,24.24906 C110.303378,25.7413098 109.681607,26.9848514 108.438066,27.8553304 C104.457489,30.5911218 100.105094,31.4616009 95.6283442,29.5962886 C91.2759488,27.7309763 89.4106365,24.0003517 89.4106365,19.399248 C89.2862824,13.4302486 93.3899695,8.70479076 98.7371981,8.08301999 C104.207537,7.58560338 109.058593,11.316228 110.053426,16.9121649 C110.675197,20.0210188 109.804718,21.1402061 106.57151,21.2645603 L102.09476,21.2645603 L102.09476,21.2645603 Z M99.483323,17.2852274 C99.9807396,17.2852274 100.60251,17.4095815 101.099927,17.2852274 C102.09476,17.1608732 103.58701,17.9069981 103.835718,16.7878108 C104.208781,15.2955609 102.965239,14.1763735 101.721698,13.5546028 C99.9819832,12.6841237 98.3641356,12.8084778 96.8731293,14.1763735 C96.1257608,14.9224984 95.2552818,15.7929775 95.6295878,16.9121649 C96.0026502,17.9069981 97.1205941,17.2852274 97.9910731,17.4095815 C98.4884898,17.4095815 98.9859064,17.2852274 99.483323,17.2852274 L99.483323,17.2852274 Z" id="Shape"></path>
                <path d="M23.1298726,30.0937052 C22.7568101,29.9681075 22.2593935,29.9681075 21.6376228,29.7206427 C11.8136446,25.4926015 4.72545784,18.6531231 0.746124922,8.70479076 C-0.621770769,5.34722861 0.746124922,2.61143723 4.22804123,1.49224984 C4.849812,1.24354154 5.47158276,1.24354154 6.09335353,1.49224984 C7.58560338,1.98966646 11.1918738,7.08818676 11.316228,8.58043661 C11.4405821,9.69962399 10.5701031,10.3213948 9.82397815,10.9431655 C8.3317283,11.9379988 8.3317283,13.1815403 8.95349907,14.6737901 C10.4457489,17.9069981 12.8084778,20.1453729 16.0416858,21.5132686 C17.1608732,22.0106852 18.2800606,22.0106852 19.0261855,20.7671437 C20.3940812,18.6531231 22.1350394,18.7774772 24.0003517,20.0210188 C24.9951849,20.6427895 25.865664,21.2645603 26.7361431,22.0106852 C27.9796846,23.0055184 29.4719344,23.7503998 28.7258095,25.865664 C27.9796846,27.9809281 25.3682474,30.0937052 23.1298726,30.0937052 L23.1298726,30.0937052 Z M112.043093,19.0261855 L112.043093,11.5649363 C112.043093,10.1970406 112.540509,9.20220738 113.784051,8.58043661 C115.151946,7.95866584 116.519842,8.08301999 117.390321,9.20220738 C118.136446,10.3213948 118.508265,9.82397815 119.130036,9.20220738 C120.000515,8.45608245 121.120946,8.08301999 122.364487,8.20737415 C123.732383,8.45608245 124.602862,9.20220738 124.85157,10.5701031 C125.099035,11.9379988 124.602862,13.0571861 123.482431,13.3058945 C118.383911,14.549436 117.637786,18.0313523 118.135203,22.5068583 C118.259557,24.1247058 118.259557,25.7413098 118.010848,27.2335597 C117.76214,29.098872 116.641709,30.2168158 114.776397,30.0937052 C113.036682,29.9681075 112.16496,28.724566 112.040605,26.9848514 C112.043093,24.4977683 112.043093,21.7619769 112.043093,19.0261855 L112.043093,19.0261855 Z M59.068223,20.0210188 L59.068223,12.932832 C59.068223,10.9431655 59.9387021,9.69962399 62.0527227,9.69962399 C64.0423892,9.69962399 64.9128683,10.9431655 64.9128683,12.8084778 L64.9128683,27.1092055 C64.9128683,29.1001155 63.918035,30.3436571 61.9283686,30.3436571 C59.9387021,30.2180594 59.068223,28.9745178 59.068223,26.9860949 L59.068223,20.0210188 L59.068223,20.0210188 Z M15.9173317,0.870479076 C22.7568101,1.11918738 28.7258095,7.33689507 28.6014554,14.1763735 C28.6014554,14.7981443 28.8501637,15.7929775 27.8553304,15.7929775 C26.8604972,15.7929775 27.1092055,14.7981443 27.1092055,14.0520194 C26.2387264,6.83947846 22.8811643,3.4819163 15.7929775,2.36272892 C15.1712068,2.23837477 14.3007277,2.36272892 14.3007277,1.616604 C14.4250818,0.497416615 15.4199151,0.99483323 15.9173317,0.870479076 L15.9173317,0.870479076 Z M65.4102849,4.47674953 C65.1628201,6.34206184 64.292341,7.58560338 62.301431,7.70995753 C60.4361187,7.83431169 58.9438689,6.34206184 58.9438689,4.47674953 C58.9438689,2.61143723 60.5604729,0.99483323 62.301431,1.11918738 C64.0423892,1.36789569 65.1615766,2.48708307 65.4102849,4.47674953 Z" id="Shape"></path>
                <path d="M25.1195391,12.932832 C24.9951849,13.4302486 25.3682474,14.3007277 24.4977683,14.4250818 C23.3785809,14.549436 23.6272892,13.5546028 23.5029351,12.932832 C22.7568101,8.58043661 21.2645603,6.96383261 16.7878108,5.96899938 C16.16604,5.84464523 15.1712068,5.96899938 15.2955609,4.97416615 C15.4199151,3.97933292 16.4147483,4.35239538 17.0365191,4.47674953 C21.5132686,4.97416615 25.1195391,8.70479076 25.1195391,12.932832 Z" id="Shape"></path>
                <path d="M21.7619769,12.1867071 C21.7619769,12.6841237 21.7619769,13.3058945 21.015852,13.4302486 C20.5184354,13.4302486 20.2697271,13.0571861 20.1453729,12.5597695 C20.0210188,10.6944572 19.0261855,9.69962399 17.1608732,9.45091568 C16.6634566,9.32656153 16.0416858,9.20220738 16.2903941,8.45608245 C16.4147483,7.95866584 16.9121649,7.95866584 17.4095815,7.95866584 C19.5236021,7.83431169 21.7619769,10.0726865 21.7619769,12.1867071 Z" id="Shape"></path>
            </g>
        </g>
    </g>
</svg>
