<?xml version="1.0" encoding="UTF-8"?>
<svg width="44px" height="45px" viewBox="0 0 44 45" version="1.1" xmlns="http://www.w3.org/2000/svg" xmlns:xlink="http://www.w3.org/1999/xlink">
    <!-- Generator: Sketch 45 (43475) - http://www.bohemiancoding.com/sketch -->
    <title>whatup@2x</title>
    <desc>Created with Sketch.</desc>
    <defs></defs>
    <g id="Symbols" stroke="none" stroke-width="1" fill="none" fill-rule="evenodd">
        <g id="form-alternative" transform="translate(-474.000000, -259.000000)" fill="#FFFFFF">
            <g id="whatup" transform="translate(474.126824, 259.000000)">
                <g id="Group-3">
                    <path d="M34.0804931,34.1720948 C30.8364595,37.4161284 26.5232456,39.2026793 21.9355439,39.2026793 C19.2492654,39.2026793 16.6774361,38.5999696 14.2912431,37.4113685 L12.7486109,36.6429084 L5.95717915,38.2519677 L7.38673713,31.3123442 L6.62673905,29.8240807 C5.38800034,27.3981161 4.7599045,24.7747741 4.7599045,22.0270398 C4.7599045,17.4392323 6.54645532,13.1261242 9.79048891,9.88198485 C13.00554,6.6669338 17.3890947,4.85129467 21.9358612,4.85129467 C26.523563,4.85140044 30.8365653,6.63795127 34.0805989,9.88187907 C37.3246325,13.1259127 39.1111833,17.4390208 39.1112891,22.0267225 C39.1111833,26.5735949 37.2955442,30.9571496 34.0804931,34.1720948 Z M20.8630845,0.117093651 C9.18238466,0.673262048 -0.035329069,10.401026 0.000105775656,22.0949478 C0.0108948925,25.6566257 0.870745197,29.0183876 2.3875681,31.9887795 L0.0587054889,43.2933412 C-0.067273317,43.9048302 0.484240951,44.4402666 1.09171054,44.2964117 L12.1688545,41.6720119 C15.0147485,43.0896173 18.2112888,43.9084266 21.5943116,43.9600451 C33.5331041,44.1424024 43.4879684,34.6626823 43.8600871,22.7283324 C44.2589671,9.93550733 33.7006528,-0.494289639 20.8630845,0.117093651 L20.8630845,0.117093651 Z" id="Fill-1"></path>
                </g>
                <path d="M32.581229,26.7840884 L28.3323267,25.564072 C27.7737254,25.4037161 27.1721793,25.562168 26.7651546,25.9769144 L25.7261203,27.0355171 C25.2879975,27.4818904 24.6231975,27.6253222 24.0433354,27.3907118 C22.0333864,26.577297 17.8053219,22.8180302 16.725564,20.9376564 C16.4140547,20.3952388 16.4655674,19.7171111 16.8480522,19.2221868 L17.7551842,18.0486059 C18.1105904,17.5887991 18.1855854,16.9712808 17.9505519,16.4397582 L16.1629433,12.3966953 C15.7347634,11.4283192 14.497294,11.146427 13.6888507,11.8301609 C12.5029998,12.8331256 11.095972,14.3572471 10.9249328,16.0457439 C10.6233664,19.0226939 11.9000786,22.7754026 16.7279968,27.2814455 C22.3055471,32.4871944 26.77203,33.1749477 29.6801201,32.4704819 C31.3295857,32.0709672 32.6477619,30.4693122 33.4796874,29.1579057 C34.0468565,28.2637841 33.5990023,27.0763465 32.581229,26.7840884" id="Fill-4"></path>
            </g>
        </g>
    </g>
</svg>