<svg width="16" height="19" viewBox="0 0 16 19" fill="none" xmlns="http://www.w3.org/2000/svg">
<path fill-rule="evenodd" clip-rule="evenodd" d="M11.2318 0C11.3143 1.10307 10.9735 2.19563 10.282 3.04564C9.61104 3.90007 8.59442 4.39221 7.52371 4.38093C7.45562 3.30961 7.80624 2.25452 8.49835 1.44804C9.19925 0.630639 10.1752 0.113619 11.2318 0ZM14.618 6.4814C13.3864 7.25669 12.6284 8.62395 12.6098 10.1042C12.6116 11.7788 13.5911 13.2902 15.0975 13.9425C14.8078 14.9062 14.3711 15.8168 13.8036 16.6408C13.0414 17.8082 12.2423 18.9486 10.9739 18.9697C10.3707 18.984 9.9635 18.8063 9.5392 18.6213C9.09663 18.4282 8.63544 18.2271 7.91376 18.2271C7.14839 18.2271 6.66656 18.4347 6.20185 18.635C5.80026 18.808 5.41145 18.9755 4.86351 18.9988C3.65559 19.0446 2.73246 17.7529 1.94258 16.5965C0.363854 14.2349 -0.865451 9.94119 0.782606 7.01964C1.55653 5.59571 3.00357 4.69213 4.59429 4.63951C5.27937 4.62508 5.93675 4.89544 6.5131 5.13247C6.95386 5.31374 7.34723 5.47551 7.66935 5.47551C7.95252 5.47551 8.33492 5.32012 8.78057 5.13903C9.48258 4.85375 10.3415 4.5047 11.2169 4.59878C12.577 4.64235 13.8375 5.34005 14.618 6.4814Z" fill="white"/>
</svg>
