<svg width="16" height="26" viewBox="0 0 16 26" fill="none" xmlns="http://www.w3.org/2000/svg">
<path fill-rule="evenodd" clip-rule="evenodd" d="M14.909 14.7079C14.894 14.7229 14.874 14.7269 14.859 14.7409L4.49203 25.1089C3.55503 26.0459 2.03503 26.0459 1.09803 25.1089C0.160031 24.1709 0.160031 22.6519 1.09803 21.7139L9.80903 13.0029L1.09803 4.29194C0.160031 3.35494 0.160031 1.83494 1.09803 0.89794C2.03503 -0.0390596 3.55503 -0.0390596 4.49203 0.89794L14.859 11.2649C14.874 11.2789 14.894 11.2829 14.909 11.2979C15.379 11.7689 15.613 12.3859 15.611 13.0029C15.613 13.6199 15.379 14.2379 14.909 14.7079Z" fill="#E76060"/>
</svg>
