<svg width="32" height="29" viewBox="0 0 32 29" fill="none" xmlns="http://www.w3.org/2000/svg">
<path fill-rule="evenodd" clip-rule="evenodd" d="M30.5 11.3333H1.5V26C1.5 26.8284 2.17157 27.5 3 27.5H29C29.8284 27.5 30.5 26.8284 30.5 26V11.3333ZM30.5 9.83333H1.5V6C1.5 5.17157 2.17157 4.5 3 4.5H29C29.8284 4.5 30.5 5.17157 30.5 6V9.83333ZM32 6C32 4.34315 30.6569 3 29 3H3C1.34315 3 0 4.34315 0 6V26C0 27.6569 1.34315 29 3 29H29C30.6569 29 32 27.6569 32 26V6Z" fill="#E76060"/>
<path fill-rule="evenodd" clip-rule="evenodd" d="M8.25 7V0H9.75V7H8.25Z" fill="#E76060"/>
<path fill-rule="evenodd" clip-rule="evenodd" d="M15.25 7V0H16.75V7H15.25Z" fill="#E76060"/>
<path fill-rule="evenodd" clip-rule="evenodd" d="M22.25 7V0H23.75V7H22.25Z" fill="#E76060"/>
<path fill-rule="evenodd" clip-rule="evenodd" d="M10 17.5L6 17.5L6 14.5L10 14.5L10 17.5Z" fill="#E76060"/>
<path fill-rule="evenodd" clip-rule="evenodd" d="M10 23.5L6 23.5L6 20.5L10 20.5L10 23.5Z" fill="#E76060"/>
<path fill-rule="evenodd" clip-rule="evenodd" d="M26 17.5L22 17.5L22 14.5L26 14.5L26 17.5Z" fill="#E76060"/>
<path fill-rule="evenodd" clip-rule="evenodd" d="M26 23.5L22 23.5L22 20.5L26 20.5L26 23.5Z" fill="#E76060"/>
<path fill-rule="evenodd" clip-rule="evenodd" d="M18 17.5L14 17.5L14 14.5L18 14.5L18 17.5Z" fill="#E76060"/>
<path fill-rule="evenodd" clip-rule="evenodd" d="M18 23.5L14 23.5L14 20.5L18 20.5L18 23.5Z" fill="#E76060"/>
</svg>
