<svg width="103" height="32" viewBox="0 0 103 32" fill="none" xmlns="http://www.w3.org/2000/svg">
<path fill-rule="evenodd" clip-rule="evenodd" d="M15.5305 31.061C24.1078 31.061 31.061 24.1078 31.061 15.5305C31.061 6.95325 24.1078 0 15.5305 0C6.95325 0 0 6.95325 0 15.5305C0 24.1078 6.95325 31.061 15.5305 31.061ZM20.0687 15.6314C22.6307 15.6314 24.7077 13.5544 24.7077 10.9924C24.7077 8.43033 22.6307 6.35338 20.0687 6.35338C17.5066 6.35338 15.4297 8.43033 15.4297 10.9924C15.4297 13.5544 17.5066 15.6314 20.0687 15.6314Z" fill="white"/>
<path d="M51.0125 25.1431C56.7069 25.1431 61.3247 20.6669 61.3247 14.8308C61.3247 8.99476 56.7069 4.51855 51.0125 4.51855C45.318 4.51855 40.7002 8.99476 40.7002 14.8308C40.7002 20.6669 45.318 25.1431 51.0125 25.1431ZM51.0125 20.7235C47.7828 20.7235 45.2331 18.3721 45.2331 14.8308C45.2331 11.2895 47.7828 8.9381 51.0125 8.9381C54.2421 8.9381 56.7919 11.2895 56.7919 14.8308C56.7919 18.3721 54.2421 20.7235 51.0125 20.7235Z" fill="white"/>
<path d="M67.9848 13.1027V10.5813H63.7352V24.7465H67.9848V18.3438C67.9848 15.5391 70.4779 14.8308 72.2344 15.1141V10.298C70.4495 10.298 68.5514 11.2045 67.9848 13.1027Z" fill="white"/>
<path d="M80.6051 25.1431C83.3815 25.1431 85.7896 23.6982 87.0078 21.4885L83.2965 19.3637C82.8432 20.3552 81.795 20.9502 80.5484 20.9502C78.707 20.9502 77.3471 19.6187 77.3471 17.6639C77.3471 15.7091 78.707 14.3775 80.5484 14.3775C81.795 14.3775 82.8149 14.9725 83.2965 15.964L87.0078 13.8109C85.7896 11.6295 83.3532 10.1846 80.6051 10.1846C76.2989 10.1846 73.0975 13.4426 73.0975 17.6639C73.0975 21.8851 76.2989 25.1431 80.6051 25.1431Z" fill="white"/>
<path d="M98.7253 10.5813V11.9128C97.7904 10.8362 96.4022 10.1846 94.504 10.1846C90.7928 10.1846 87.7331 13.4426 87.7331 17.6639C87.7331 21.8851 90.7928 25.1431 94.504 25.1431C96.4022 25.1431 97.7904 24.4915 98.7253 23.4149V24.7465H102.975V10.5813H98.7253ZM95.354 21.1202C93.3992 21.1202 91.9826 19.7886 91.9826 17.6639C91.9826 15.5391 93.3992 14.2076 95.354 14.2076C97.3088 14.2076 98.7253 15.5391 98.7253 17.6639C98.7253 19.7886 97.3088 21.1202 95.354 21.1202Z" fill="white"/>
</svg>
