<svg width="28" height="28" viewBox="0 0 28 28" fill="none" xmlns="http://www.w3.org/2000/svg">
<path d="M10.9236 16.7946C10.5531 16.7965 10.197 16.6513 9.93345 16.3908C9.66994 16.1303 9.52058 15.7759 9.51819 15.4054C9.51819 14.6268 10.145 14 10.9236 14C11.6914 14 12.3128 14.6268 12.3128 15.4054C12.3128 16.1732 11.6859 16.7946 10.9236 16.7946ZM28 14C28 21.7343 21.7334 28 14 28C6.26658 28 0 21.7334 0 14C0 6.26568 6.26658 0 14 0C21.7334 0 28 6.26658 28 14ZM20.5312 11.6742C20.001 11.6742 19.5323 11.8946 19.1872 12.2387C17.9227 11.3635 16.2183 10.799 14.327 10.7366L15.3088 6.31626L18.4366 7.02168C18.4366 7.78942 19.0635 8.41084 19.8249 8.41084C20.6044 8.41084 21.2303 7.77316 21.2303 7.00542C21.2303 6.23768 20.6035 5.6 19.8249 5.6C19.2775 5.6 18.8088 5.92787 18.5775 6.37948L15.1227 5.61174C14.9529 5.56658 14.7786 5.69123 14.7334 5.86013L13.655 10.7375C11.7808 10.817 10.0926 11.3752 8.82813 12.2505C8.65235 12.0672 8.44108 11.9217 8.20722 11.8228C7.97335 11.7238 7.72179 11.6736 7.46787 11.6751C5.49793 11.6751 4.85394 14.3225 6.65497 15.2203C6.59143 15.5077 6.55933 15.8011 6.55923 16.0955C6.55923 19.0644 9.90116 21.4697 14.0108 21.4697C18.1377 21.4697 21.4796 19.0644 21.4796 16.0955C21.4796 15.7965 21.4453 15.4858 21.3721 15.2031C23.1388 14.2999 22.4894 11.6742 20.5312 11.6742ZM16.6419 18.2343C15.615 19.2613 12.3462 19.245 11.3581 18.2343C11.2945 18.1749 11.2107 18.1418 11.1237 18.1418C11.0366 18.1418 10.9529 18.1749 10.8893 18.2343C10.7484 18.3752 10.7484 18.5956 10.8893 18.7203C12.1764 20.0074 15.8173 20.0074 17.1107 18.7203C17.2516 18.5956 17.2516 18.3761 17.1107 18.2343C17.0471 18.1749 16.9634 18.1418 16.8763 18.1418C16.7893 18.1418 16.7055 18.1749 16.6419 18.2343ZM17.0764 14C16.3086 14 15.6872 14.6268 15.6872 15.4054C15.6887 15.682 15.7721 15.952 15.927 16.1812C16.0819 16.4103 16.3013 16.5884 16.5575 16.6929C16.8136 16.7973 17.0949 16.8234 17.3659 16.7679C17.6369 16.7124 17.8854 16.5778 18.0798 16.3811C18.2743 16.1843 18.406 15.9344 18.4583 15.6627C18.5107 15.3911 18.4813 15.1101 18.3739 14.8552C18.2664 14.6003 18.0858 14.383 17.8549 14.2307C17.6239 14.0785 17.353 13.9982 17.0764 14Z" fill="white"/>
</svg>
