<svg width="28" height="28" viewBox="0 0 28 28" fill="none" xmlns="http://www.w3.org/2000/svg">
<path fill-rule="evenodd" clip-rule="evenodd" d="M14 0C6.26801 0 0 6.26801 0 14C0 21.732 6.26801 28 14 28C21.732 28 28 21.732 28 14C28 6.26801 21.732 0 14 0ZM6.721 11.5954H9.8937V21.128H6.721V11.5954ZM10.1025 8.64657C10.0819 7.7119 9.41355 7 8.32819 7C7.24282 7 6.53325 7.7119 6.53325 8.64657C6.53325 9.56189 7.22185 10.2943 8.287 10.2943H8.30728C9.41355 10.2943 10.1025 9.56189 10.1025 8.64657ZM17.6826 11.3716C19.7704 11.3716 21.3356 12.7343 21.3356 15.6623L21.3354 21.1281H18.1629V16.0281C18.1629 14.7471 17.7037 13.873 16.5552 13.873C15.6787 13.873 15.1566 14.4622 14.9273 15.0314C14.8434 15.2354 14.8228 15.5196 14.8228 15.8045V21.1283H11.6497C11.6497 21.1283 11.6915 12.4901 11.6497 11.5957H14.8228V12.9459C15.2439 12.2968 15.9981 11.3716 17.6826 11.3716Z" fill="white"/>
</svg>
