<svg width="28" height="28" viewBox="0 0 28 28" fill="none" xmlns="http://www.w3.org/2000/svg">
<path fill-rule="evenodd" clip-rule="evenodd" d="M14 0C6.26801 0 0 6.26801 0 14C0 21.732 6.26801 28 14 28C21.732 28 28 21.732 28 14C28 6.26801 21.732 0 14 0ZM14.6101 12.864L14.5807 12.3795C14.4926 11.124 15.2662 9.97714 16.4903 9.53225C16.9407 9.37407 17.7046 9.3543 18.204 9.49271C18.3999 9.55202 18.772 9.74975 19.0364 9.9277L19.5162 10.254L20.045 10.0859C20.3388 9.99691 20.7305 9.84861 20.9068 9.74975C21.0733 9.66077 21.2202 9.61134 21.2202 9.641C21.2202 9.80907 20.8578 10.3825 20.5543 10.6988C20.143 11.1437 20.2605 11.1833 21.0929 10.8867C21.5923 10.7186 21.6021 10.7186 21.5041 10.9065C21.4454 11.0053 21.1418 11.3513 20.8187 11.6677C20.2703 12.2115 20.2409 12.2708 20.2409 12.7255C20.2409 13.4275 19.9079 14.8907 19.575 15.6915C18.958 17.1942 17.636 18.7463 16.314 19.5274C14.4534 20.6247 11.9758 20.9016 9.88999 20.259C9.19471 20.0415 8 19.4878 8 19.389C8 19.3593 8.36233 19.3197 8.803 19.3099C9.72352 19.2901 10.644 19.033 11.4274 18.5783L11.9563 18.2619L11.3491 18.0543C10.4873 17.7577 9.71372 17.0755 9.51787 16.4329C9.45911 16.2253 9.4787 16.2154 10.0271 16.2154L10.5951 16.2055L10.1152 15.9782C9.54725 15.6915 9.02823 15.207 8.77362 14.7127C8.58756 14.3568 8.35254 13.4571 8.42109 13.3879C8.44067 13.3583 8.64632 13.4176 8.88134 13.4967C9.55704 13.7438 9.64517 13.6845 9.25347 13.2693C8.51901 12.5179 8.29378 11.4008 8.64632 10.3429L8.81279 9.86839L9.45911 10.511C10.7811 11.8061 12.3382 12.5772 14.1204 12.8046L14.6101 12.864Z" fill="white"/>
</svg>
